<svg data-name="Capa 1" version="1.1" viewBox="0 0 206.87 210" xmlns="http://www.w3.org/2000/svg">
   <title>ticket</title>
   <path d="m26.17 121.59h24.71l-2.27 12.41c-.666667 3.82667-.77 6.29-.31 7.39.49 1.1 1.62 1.64 3.38 1.64 1.681127.05 3.285501-.70392 4.32-2.03 1.29917-1.83246 2.13314-3.95342 2.43-6.18 1.1-6 .993333-9.93667-.32-11.81s-4.893333-4.97333-10.74-9.3c-5.8-4.4-9.59-7.58-11.38-9.56-1.967584-2.36049-3.284391-5.19404-3.82-8.22-.78-3.493333-.673333-7.96.32-13.4 1.433333-7.84 3.48-13.57 6.14-17.19 2.892232-3.810346 6.777468-6.751085 11.23-8.5 5.307596-2.134139 10.990435-3.178203 16.71-3.07 6.9 0 12.566667 1.116667 17 3.35s7.136667 5.046667 8.11 8.44c.350927 1.39986.532229 2.836844.54 4.28l2.92-16h51l-6.93-26.12c-12.46193 3.302595-25.24231-4.119427-28.55-16.58l-83.78 22.2c3.307865 12.465766-4.12175 25.251511-16.59 28.55l15.86 59.79z" color="#000000" color-rendering="auto" dominant-baseline="auto" fill="#365680" image-rendering="auto" shape-rendering="auto" solid-color="#000000" stop-color="#000000" style="font-feature-settings:normal;font-variant-alternates:normal;font-variant-caps:normal;font-variant-east-asian:normal;font-variant-ligatures:normal;font-variant-numeric:normal;font-variant-position:normal;font-variation-settings:normal;inline-size:0;isolation:auto;mix-blend-mode:normal;shape-margin:0;shape-padding:0;text-decoration-color:#000000;text-decoration-line:none;text-decoration-style:solid;text-indent:0;text-orientation:mixed;text-transform:none;white-space:normal"/>
   <path d="m151.82 75.09h-16.3l-15.52 85.33h-27.8l15.55-85.3h-15.69c-.22 2.29-.58 4.85-1.1 7.73l-.74 4h-24.73l1.38-7.58c.66-3.54.75-5.79.29-6.75-.562501-1.032666-1.704992-1.609883-2.87-1.45-1.568984-.02948-3.056795.695829-4 1.95-1.246267 1.773205-2.033107 3.827921-2.29 5.98-.63 3.42-.62 6 0 7.7s2.7 3.81 6.37 6.26c10.513333 7.06667 16.9 12.85667 19.16 17.37s2.466667 11.78333.62 21.81c-1.333333 7.3-3.163333 12.67333-5.49 16.12s-6.146667 6.34333-11.46 8.69c-5.586013 2.39522-11.612662 3.59101-17.69 3.51-4.660611.10219-9.300519-.65022-13.69-2.22l6.53 24.62 53-9 52.1-.91 33 9.95z" color="#000000" color-rendering="auto" dominant-baseline="auto" fill="#365680" image-rendering="auto" shape-rendering="auto" solid-color="#000000" stop-color="#000000" style="font-feature-settings:normal;font-variant-alternates:normal;font-variant-caps:normal;font-variant-east-asian:normal;font-variant-ligatures:normal;font-variant-numeric:normal;font-variant-position:normal;font-variation-settings:normal;inline-size:0;isolation:auto;mix-blend-mode:normal;shape-margin:0;shape-padding:0;text-decoration-color:#000000;text-decoration-line:none;text-decoration-style:solid;text-indent:0;text-orientation:mixed;text-transform:none;white-space:normal"/>
   <path d="m156.85 177.79c13.57039 2.29012 26.87926 5.92469 39.73 10.85-8.10951-4.59587-16.59708-8.49005-25.37-11.64-53-18.94-109.2-7.36-150.52 14.83l1.23 7.06c39.08-18.81 86.39-29.21 134.93-21.1z" color="#000000" color-rendering="auto" dominant-baseline="auto" fill="#f2e337" image-rendering="auto" shape-rendering="auto" solid-color="#000000" stop-color="#000000" style="font-feature-settings:normal;font-variant-alternates:normal;font-variant-caps:normal;font-variant-east-asian:normal;font-variant-ligatures:normal;font-variant-numeric:normal;font-variant-position:normal;font-variation-settings:normal;inline-size:0;isolation:auto;mix-blend-mode:normal;shape-margin:0;shape-padding:0;text-decoration-color:#000000;text-decoration-line:none;text-decoration-style:solid;text-indent:0;text-orientation:mixed;text-transform:none;white-space:normal"/>
</svg>
